<svg width="44" height="44" xmlns="http://www.w3.org/2000/svg"><g fill="none" fill-rule="evenodd"><rect fill="#50AAF0" width="44" height="44" rx="22"/><path d="M28.001 12c-2.946 0-5.334 2.374-5.334 5.301 0 .416.047.821.138 1.208A15.168 15.168 0 0111.81 12.97a5.287 5.287 0 001.651 7.078 5.337 5.337 0 01-2.417-.663v.067c0 2.569 1.839 4.711 4.279 5.198a5.376 5.376 0 01-2.409.091 5.335 5.335 0 004.983 3.682 10.743 10.743 0 01-6.625 2.269c-.43 0-.855-.025-1.272-.074A15.168 15.168 0 0018.177 33c9.811 0 15.177-8.078 15.177-15.084 0-.23-.005-.458-.015-.686A10.795 10.795 0 0036 14.486c-.956.422-1.984.706-3.063.835a5.326 5.326 0 002.345-2.933 10.725 10.725 0 01-3.387 1.286A5.345 5.345 0 0028.001 12" fill="#FFF"/></g></svg>