<svg width="44" height="44" xmlns="http://www.w3.org/2000/svg"><defs><linearGradient x1="15.01%" y1="85.076%" x2="86.861%" y2="15.811%" id="a"><stop stop-color="gold" offset="0%"/><stop stop-color="#F80000" offset="49.522%"/><stop stop-color="#BC00B2" offset="100%"/></linearGradient></defs><g fill="none" fill-rule="evenodd"><rect fill="url(#a)" width="44" height="44" rx="22"/><path d="M21.6 17.4a4.2 4.2 0 10-.001 8.399A4.2 4.2 0 0021.6 17.4m0 10.671a6.471 6.471 0 11.002-12.942A6.471 6.471 0 0121.6 28.07m6.726-11.685a1.512 1.512 0 110-3.024 1.512 1.512 0 010 3.024m3.53.123c-.056-1.229-.261-1.896-.434-2.34a3.91 3.91 0 00-.942-1.449 3.89 3.89 0 00-1.449-.942c-.444-.173-1.111-.378-2.339-.434-1.329-.061-1.728-.073-5.092-.073s-3.763.012-5.091.073c-1.229.056-1.896.261-2.34.434a3.897 3.897 0 00-1.449.942 3.897 3.897 0 00-.942 1.449c-.173.444-.378 1.111-.434 2.34-.061 1.328-.074 1.727-.074 5.091s.013 3.763.074 5.092c.056 1.229.261 1.896.434 2.339.228.589.501 1.009.942 1.449.441.441.861.714 1.449.942.444.173 1.111.378 2.34.434 1.328.062 1.726.074 5.091.074 3.364 0 3.763-.012 5.092-.074 1.228-.056 1.895-.261 2.339-.434a3.89 3.89 0 001.449-.942c.44-.44.714-.86.942-1.449.173-.443.378-1.11.434-2.339.06-1.329.074-1.728.074-5.092s-.014-3.763-.074-5.091m2.268 10.287c-.061 1.34-.274 2.256-.586 3.058a6.179 6.179 0 01-1.453 2.232c-.7.7-1.403 1.13-2.231 1.453-.802.311-1.718.524-3.059.586-1.344.061-1.773.075-5.195.075-3.422 0-3.851-.014-5.195-.075-1.341-.062-2.257-.275-3.058-.586a6.188 6.188 0 01-2.232-1.453 6.165 6.165 0 01-1.453-2.232c-.312-.802-.525-1.718-.586-3.058C9.015 25.451 9 25.022 9 21.6c0-3.422.015-3.851.076-5.195.061-1.341.274-2.257.586-3.058a6.157 6.157 0 011.453-2.232c.7-.7 1.403-1.132 2.232-1.453.801-.312 1.717-.525 3.058-.586C17.749 9.015 18.178 9 21.6 9c3.422 0 3.851.015 5.195.076 1.341.061 2.257.274 3.059.586a6.167 6.167 0 012.231 1.453 6.17 6.17 0 011.453 2.232c.312.801.525 1.717.586 3.058.062 1.344.076 1.773.076 5.195 0 3.422-.014 3.851-.076 5.196" fill="#FFF"/></g></svg>